<svg width="361" height="451" viewBox="0 0 361 451" fill="none" xmlns="http://www.w3.org/2000/svg">
<g filter="url(#filter0_d_8_136)">
<path d="M183.891 318.578C182.324 321.083 178.676 321.083 177.109 318.578L4.82834 43.1211C3.16208 40.4569 5.07736 37 8.21967 37L352.78 37C355.923 37 357.838 40.4569 356.172 43.1211L183.891 318.578Z" fill="white"/>
<path d="M350.975 42L180.5 314.571L10.0246 42L350.975 42Z" stroke="black" stroke-width="10"/>
</g>
<line y1="-5" x2="190.121" y2="-5" transform="matrix(-0.883006 0.469361 -0.5205 -0.853862 347.086 37)" stroke="black" stroke-width="10"/>
<path d="M180.073 309.512L180.931 126.218" stroke="black" stroke-width="10"/>
<line y1="-5" x2="193.564" y2="-5" transform="matrix(-0.889539 -0.45686 0.507503 -0.86165 180.93 126.235)" stroke="black" stroke-width="10"/>
<line y1="-4" x2="18.926" y2="-4" transform="matrix(0.913888 0.405966 -0.453924 0.891041 328.146 52.2745)" stroke="black" stroke-width="8"/>
<line y1="-4" x2="29.4947" y2="-4" transform="matrix(0.880225 0.474557 -0.525882 0.850558 310.436 60.4836)" stroke="black" stroke-width="8"/>
<line y1="-4" x2="33.713" y2="-4" transform="matrix(0.880225 0.474557 -0.525882 0.850558 297.785 72.8582)" stroke="black" stroke-width="8"/>
<line y1="-4" x2="48.1474" y2="-4" transform="matrix(0.880225 0.474557 -0.525882 0.850558 276.333 79.9951)" stroke="black" stroke-width="8"/>
<line y1="-4" x2="59.2672" y2="-4" transform="matrix(0.880225 0.474557 -0.525882 0.850558 258.493 87.5165)" stroke="black" stroke-width="8"/>
<line y1="-4" x2="63.0329" y2="-4" transform="matrix(0.880225 0.474557 -0.525882 0.850558 246.041 100.401)" stroke="black" stroke-width="8"/>
<line y1="-4" x2="78.4119" y2="-4" transform="matrix(0.880225 0.474557 -0.525882 0.850558 224.604 105.706)" stroke="black" stroke-width="8"/>
<line y1="-4" x2="88.232" y2="-4" transform="matrix(0.880225 0.474557 -0.525882 0.850558 206.905 115.545)" stroke="black" stroke-width="8"/>
<line y1="-4" x2="95.1202" y2="-4" transform="matrix(0.880225 0.474557 -0.525882 0.850558 192.218 126.08)" stroke="black" stroke-width="8"/>
<line y1="-4" x2="101.211" y2="-4" transform="matrix(0.880225 0.474557 -0.525882 0.850558 178.391 136.739)" stroke="black" stroke-width="8"/>
<line y1="-4" x2="89.1455" y2="-4" transform="matrix(0.880225 0.474557 -0.525882 0.850558 180.145 156.661)" stroke="black" stroke-width="8"/>
<line y1="-4" x2="80.114" y2="-4" transform="matrix(0.873063 0.487608 -0.539348 0.842083 180.07 173.667)" stroke="black" stroke-width="8"/>
<line y1="-4" x2="71.404" y2="-4" transform="matrix(0.880225 0.474557 -0.525882 0.850558 178.417 192.847)" stroke="black" stroke-width="8"/>
<line y1="-4" x2="59.2791" y2="-4" transform="matrix(0.880225 0.474557 -0.525882 0.850558 180.277 212.718)" stroke="black" stroke-width="8"/>
<line y1="-4" x2="40.9396" y2="-4" transform="matrix(0.880225 0.474557 -0.525882 0.850558 179.673 248.242)" stroke="black" stroke-width="8"/>
<line y1="-4" x2="31.3265" y2="-4" transform="matrix(0.880225 0.474557 -0.525882 0.850558 178.705 267.918)" stroke="black" stroke-width="8"/>
<line y1="-4" x2="22.3801" y2="-4" transform="matrix(0.88078 0.473525 -0.524814 0.851217 177.576 285.265)" stroke="black" stroke-width="8"/>
<line y1="-4" x2="53.5384" y2="-4" transform="matrix(0.880225 0.474557 -0.525882 0.850558 177.605 227.857)" stroke="black" stroke-width="8"/>
<path d="M24.16 428V359.84H52.576C55.584 359.84 58.336 360.48 60.832 361.76C63.328 362.976 65.504 364.64 67.36 366.752C69.216 368.8 70.656 371.136 71.68 373.76C72.704 376.32 73.216 378.944 73.216 381.632C73.216 385.344 72.384 388.896 70.72 392.288C69.056 395.616 66.72 398.336 63.712 400.448C60.704 402.496 57.184 403.52 53.152 403.52H32.8V428H24.16ZM32.8 395.84H52.672C55.04 395.84 57.088 395.2 58.816 393.92C60.608 392.64 61.984 390.912 62.944 388.736C63.968 386.56 64.48 384.192 64.48 381.632C64.48 378.944 63.904 376.544 62.752 374.432C61.6 372.256 60.096 370.56 58.24 369.344C56.384 368.128 54.336 367.52 52.096 367.52H32.8V395.84ZM93.5725 428V359.84H122.757C125.765 359.84 128.517 360.48 131.013 361.76C133.508 362.976 135.684 364.64 137.541 366.752C139.397 368.8 140.837 371.136 141.86 373.76C142.885 376.32 143.397 378.944 143.397 381.632C143.397 384.768 142.789 387.744 141.573 390.56C140.421 393.376 138.757 395.776 136.581 397.76C134.469 399.744 131.972 401.12 129.092 401.888L145.605 428H135.813L120.26 403.52H102.212V428H93.5725ZM102.212 395.84H122.852C125.22 395.84 127.269 395.2 128.997 393.92C130.789 392.576 132.165 390.816 133.124 388.64C134.148 386.464 134.66 384.128 134.66 381.632C134.66 379.072 134.085 376.736 132.933 374.624C131.781 372.448 130.277 370.72 128.42 369.44C126.565 368.16 124.517 367.52 122.276 367.52H102.212V395.84ZM166.266 428V359.84H174.906V428H166.266ZM240.836 374.144C240.068 373.248 239.044 372.384 237.764 371.552C236.484 370.72 235.044 369.984 233.444 369.344C231.844 368.64 230.084 368.096 228.164 367.712C226.308 367.264 224.356 367.04 222.308 367.04C217.06 367.04 213.188 368.032 210.692 370.016C208.196 372 206.948 374.72 206.948 378.176C206.948 380.608 207.588 382.528 208.868 383.936C210.148 385.344 212.1 386.496 214.724 387.392C217.412 388.288 220.804 389.216 224.9 390.176C229.636 391.2 233.732 392.448 237.188 393.92C240.644 395.392 243.3 397.376 245.156 399.872C247.012 402.304 247.94 405.568 247.94 409.664C247.94 412.928 247.3 415.776 246.02 418.208C244.804 420.576 243.076 422.56 240.836 424.16C238.596 425.696 235.972 426.848 232.964 427.616C229.956 428.32 226.692 428.672 223.172 428.672C219.716 428.672 216.324 428.32 212.996 427.616C209.732 426.848 206.628 425.76 203.684 424.352C200.74 422.944 197.988 421.184 195.428 419.072L199.556 411.776C200.58 412.864 201.892 413.952 203.492 415.04C205.156 416.064 207.012 417.024 209.06 417.92C211.172 418.816 213.444 419.552 215.876 420.128C218.308 420.64 220.804 420.896 223.364 420.896C228.228 420.896 232.004 420.032 234.692 418.304C237.38 416.512 238.724 413.92 238.724 410.528C238.724 407.968 237.956 405.92 236.42 404.384C234.948 402.848 232.74 401.568 229.796 400.544C226.852 399.52 223.268 398.496 219.044 397.472C214.436 396.32 210.564 395.072 207.428 393.728C204.292 392.32 201.924 390.496 200.324 388.256C198.788 386.016 198.02 383.104 198.02 379.52C198.02 375.168 199.076 371.488 201.188 368.48C203.3 365.472 206.212 363.2 209.924 361.664C213.636 360.128 217.828 359.36 222.5 359.36C225.572 359.36 228.42 359.68 231.044 360.32C233.732 360.96 236.228 361.856 238.532 363.008C240.836 364.16 242.948 365.536 244.868 367.136L240.836 374.144ZM327.848 428V375.968L305.384 416H300.104L277.544 375.968V428H268.904V359.84H278.024L302.696 404.096L327.464 359.84H336.488V428H327.848Z" fill="black"/>
<path d="M10.53 17V4.22H15.858C16.422 4.22 16.938 4.34 17.406 4.58C17.874 4.808 18.282 5.12 18.63 5.516C18.978 5.9 19.248 6.338 19.44 6.83C19.632 7.31 19.728 7.802 19.728 8.306C19.728 9.002 19.572 9.668 19.26 10.304C18.948 10.928 18.51 11.438 17.946 11.834C17.382 12.218 16.722 12.41 15.966 12.41H12.15V17H10.53ZM12.15 10.97H15.876C16.32 10.97 16.704 10.85 17.028 10.61C17.364 10.37 17.622 10.046 17.802 9.638C17.994 9.23 18.09 8.786 18.09 8.306C18.09 7.802 17.982 7.352 17.766 6.956C17.55 6.548 17.268 6.23 16.92 6.002C16.572 5.774 16.188 5.66 15.768 5.66H12.15V10.97ZM26.4608 8.99C25.6688 9.002 24.9668 9.206 24.3548 9.602C23.7548 9.986 23.3288 10.52 23.0768 11.204V17H21.4928V7.604H22.9688V9.782C23.2928 9.134 23.7188 8.612 24.2468 8.216C24.7868 7.808 25.3508 7.58 25.9388 7.532C26.0588 7.532 26.1608 7.532 26.2448 7.532C26.3288 7.532 26.4008 7.538 26.4608 7.55V8.99ZM28.0319 17V7.604H29.6159V17H28.0319ZM28.0319 5.84V3.86H29.6159V5.84H28.0319ZM46.3463 17H44.7623V11.744C44.7623 10.76 44.6003 10.034 44.2763 9.566C43.9643 9.098 43.4963 8.864 42.8723 8.864C42.2363 8.864 41.6603 9.098 41.1443 9.566C40.6283 10.022 40.2623 10.616 40.0463 11.348V17H38.4623V11.744C38.4623 10.748 38.3063 10.022 37.9943 9.566C37.6823 9.098 37.2143 8.864 36.5903 8.864C35.9663 8.864 35.3903 9.092 34.8623 9.548C34.3463 9.992 33.9803 10.586 33.7643 11.33V17H32.1803V7.604H33.6203V9.62C34.0043 8.924 34.5023 8.39 35.1143 8.018C35.7263 7.634 36.4163 7.442 37.1843 7.442C37.9643 7.442 38.5883 7.658 39.0563 8.09C39.5243 8.51 39.8123 9.056 39.9203 9.728C40.3403 8.984 40.8503 8.42 41.4503 8.036C42.0503 7.64 42.7343 7.442 43.5023 7.442C44.0423 7.442 44.4923 7.544 44.8523 7.748C45.2243 7.94 45.5183 8.216 45.7343 8.576C45.9503 8.924 46.1063 9.338 46.2023 9.818C46.2983 10.298 46.3463 10.82 46.3463 11.384V17ZM48.0713 14.282C48.0713 13.682 48.2393 13.166 48.5753 12.734C48.9233 12.29 49.3973 11.948 49.9973 11.708C50.5973 11.468 51.2933 11.348 52.0853 11.348C52.5053 11.348 52.9493 11.384 53.4173 11.456C53.8853 11.516 54.2993 11.612 54.6593 11.744V11.06C54.6593 10.34 54.4433 9.776 54.0113 9.368C53.5793 8.948 52.9673 8.738 52.1753 8.738C51.6593 8.738 51.1613 8.834 50.6813 9.026C50.2133 9.206 49.7153 9.47 49.1873 9.818L48.6113 8.702C49.2233 8.282 49.8353 7.97 50.4473 7.766C51.0593 7.55 51.6953 7.442 52.3553 7.442C53.5553 7.442 54.5033 7.778 55.1993 8.45C55.8953 9.11 56.2433 10.034 56.2433 11.222V15.2C56.2433 15.392 56.2793 15.536 56.3513 15.632C56.4353 15.716 56.5673 15.764 56.7473 15.776V17C56.5913 17.024 56.4533 17.042 56.3333 17.054C56.2253 17.066 56.1353 17.072 56.0633 17.072C55.6913 17.072 55.4093 16.97 55.2173 16.766C55.0373 16.562 54.9353 16.346 54.9113 16.118L54.8753 15.524C54.4673 16.052 53.9333 16.46 53.2733 16.748C52.6133 17.036 51.9593 17.18 51.3113 17.18C50.6873 17.18 50.1293 17.054 49.6373 16.802C49.1453 16.538 48.7613 16.19 48.4853 15.758C48.2093 15.314 48.0713 14.822 48.0713 14.282ZM54.1913 14.948C54.3353 14.78 54.4493 14.612 54.5333 14.444C54.6173 14.264 54.6593 14.114 54.6593 13.994V12.824C54.2873 12.68 53.8973 12.572 53.4893 12.5C53.0813 12.416 52.6793 12.374 52.2832 12.374C51.4793 12.374 50.8253 12.536 50.3213 12.86C49.8293 13.172 49.5833 13.604 49.5833 14.156C49.5833 14.456 49.6613 14.75 49.8173 15.038C49.9853 15.314 50.2253 15.542 50.5373 15.722C50.8613 15.902 51.2573 15.992 51.7253 15.992C52.2173 15.992 52.6853 15.896 53.1293 15.704C53.5733 15.5 53.9273 15.248 54.1913 14.948ZM63.744 8.99C62.952 9.002 62.25 9.206 61.638 9.602C61.038 9.986 60.612 10.52 60.36 11.204V17H58.776V7.604H60.252V9.782C60.576 9.134 61.002 8.612 61.53 8.216C62.07 7.808 62.634 7.58 63.222 7.532C63.342 7.532 63.444 7.532 63.528 7.532C63.612 7.532 63.684 7.538 63.744 7.55V8.99ZM65.7471 19.556C65.9031 19.568 66.0591 19.58 66.2151 19.592C66.3711 19.616 66.4911 19.628 66.5751 19.628C66.7671 19.628 66.9351 19.562 67.0791 19.43C67.2231 19.298 67.3791 19.04 67.5471 18.656C67.7271 18.284 67.9551 17.732 68.2311 17L64.2531 7.604H65.9271L69.0951 15.398L71.9571 7.604H73.5231L68.9511 19.466C68.8431 19.742 68.6811 20 68.4651 20.24C68.2611 20.492 67.9971 20.69 67.6731 20.834C67.3491 20.978 66.9591 21.05 66.5031 21.05C66.3951 21.05 66.2811 21.044 66.1611 21.032C66.0531 21.02 65.9151 20.996 65.7471 20.96V19.556ZM79.4363 17V4.22H81.0563V15.56H88.1843V17H79.4363ZM93.6593 17.18C92.9513 17.18 92.3093 17.054 91.7333 16.802C91.1573 16.538 90.6593 16.184 90.2393 15.74C89.8193 15.284 89.4953 14.762 89.2673 14.174C89.0393 13.586 88.9253 12.968 88.9253 12.32C88.9253 11.66 89.0393 11.036 89.2673 10.448C89.4953 9.86 89.8193 9.344 90.2393 8.9C90.6593 8.444 91.1573 8.09 91.7333 7.838C92.3213 7.574 92.9633 7.442 93.6593 7.442C94.3673 7.442 95.0093 7.574 95.5853 7.838C96.1613 8.09 96.6593 8.444 97.0793 8.9C97.5113 9.344 97.8413 9.86 98.0693 10.448C98.2973 11.036 98.4113 11.66 98.4113 12.32C98.4113 12.968 98.2973 13.586 98.0693 14.174C97.8413 14.762 97.5173 15.284 97.0973 15.74C96.6773 16.184 96.1733 16.538 95.5853 16.802C95.0093 17.054 94.3673 17.18 93.6593 17.18ZM90.5453 12.338C90.5453 12.986 90.6833 13.574 90.9593 14.102C91.2473 14.63 91.6253 15.05 92.0933 15.362C92.5613 15.662 93.0833 15.812 93.6593 15.812C94.2353 15.812 94.7573 15.656 95.2253 15.344C95.7053 15.032 96.0833 14.612 96.3593 14.084C96.6473 13.544 96.7913 12.95 96.7913 12.302C96.7913 11.654 96.6473 11.066 96.3593 10.538C96.0833 10.01 95.7053 9.59 95.2253 9.278C94.7573 8.966 94.2353 8.81 93.6593 8.81C93.0833 8.81 92.5613 8.972 92.0933 9.296C91.6253 9.608 91.2473 10.028 90.9593 10.556C90.6833 11.084 90.5453 11.678 90.5453 12.338ZM104.075 17.108C103.439 17.108 102.851 16.982 102.311 16.73C101.783 16.466 101.327 16.112 100.943 15.668C100.559 15.212 100.259 14.696 100.043 14.12C99.8387 13.544 99.7367 12.944 99.7367 12.32C99.7367 11.66 99.8387 11.036 100.043 10.448C100.259 9.86 100.559 9.344 100.943 8.9C101.339 8.444 101.801 8.09 102.329 7.838C102.857 7.574 103.445 7.442 104.093 7.442C104.873 7.442 105.551 7.634 106.127 8.018C106.715 8.402 107.207 8.888 107.603 9.476V7.604H109.007V16.892C109.007 17.78 108.791 18.53 108.359 19.142C107.939 19.754 107.363 20.216 106.631 20.528C105.911 20.852 105.107 21.014 104.219 21.014C103.163 21.014 102.299 20.828 101.627 20.456C100.955 20.084 100.397 19.58 99.9527 18.944L100.871 18.134C101.243 18.686 101.723 19.1 102.311 19.376C102.911 19.652 103.547 19.79 104.219 19.79C104.795 19.79 105.323 19.682 105.803 19.466C106.295 19.262 106.685 18.944 106.973 18.512C107.273 18.08 107.423 17.54 107.423 16.892V15.236C107.075 15.812 106.595 16.268 105.983 16.604C105.383 16.94 104.747 17.108 104.075 17.108ZM104.561 15.812C104.897 15.812 105.221 15.752 105.533 15.632C105.845 15.512 106.133 15.356 106.397 15.164C106.661 14.96 106.883 14.732 107.063 14.48C107.243 14.228 107.363 13.97 107.423 13.706V11.006C107.255 10.574 107.015 10.196 106.703 9.872C106.391 9.536 106.037 9.278 105.641 9.098C105.245 8.906 104.837 8.81 104.417 8.81C103.937 8.81 103.505 8.912 103.121 9.116C102.749 9.32 102.431 9.596 102.167 9.944C101.903 10.28 101.699 10.658 101.555 11.078C101.411 11.498 101.339 11.924 101.339 12.356C101.339 12.824 101.423 13.268 101.591 13.688C101.759 14.096 101.987 14.462 102.275 14.786C102.563 15.11 102.905 15.362 103.301 15.542C103.697 15.722 104.117 15.812 104.561 15.812ZM115.667 17.18C114.959 17.18 114.317 17.054 113.741 16.802C113.165 16.538 112.667 16.184 112.247 15.74C111.827 15.284 111.503 14.762 111.275 14.174C111.047 13.586 110.933 12.968 110.933 12.32C110.933 11.66 111.047 11.036 111.275 10.448C111.503 9.86 111.827 9.344 112.247 8.9C112.667 8.444 113.165 8.09 113.741 7.838C114.329 7.574 114.971 7.442 115.667 7.442C116.375 7.442 117.017 7.574 117.593 7.838C118.169 8.09 118.667 8.444 119.087 8.9C119.519 9.344 119.849 9.86 120.077 10.448C120.305 11.036 120.419 11.66 120.419 12.32C120.419 12.968 120.305 13.586 120.077 14.174C119.849 14.762 119.525 15.284 119.105 15.74C118.685 16.184 118.181 16.538 117.593 16.802C117.017 17.054 116.375 17.18 115.667 17.18ZM112.553 12.338C112.553 12.986 112.691 13.574 112.967 14.102C113.255 14.63 113.633 15.05 114.101 15.362C114.569 15.662 115.091 15.812 115.667 15.812C116.243 15.812 116.765 15.656 117.233 15.344C117.713 15.032 118.091 14.612 118.367 14.084C118.655 13.544 118.799 12.95 118.799 12.302C118.799 11.654 118.655 11.066 118.367 10.538C118.091 10.01 117.713 9.59 117.233 9.278C116.765 8.966 116.243 8.81 115.667 8.81C115.091 8.81 114.569 8.972 114.101 9.296C113.633 9.608 113.255 10.028 112.967 10.556C112.691 11.084 112.553 11.678 112.553 12.338Z" fill="#808080"/>
<defs>
<filter id="filter0_d_8_136" x="0.213257" y="37" width="360.573" height="291.457" filterUnits="userSpaceOnUse" color-interpolation-filters="sRGB">
<feFlood flood-opacity="0" result="BackgroundImageFix"/>
<feColorMatrix in="SourceAlpha" type="matrix" values="0 0 0 0 0 0 0 0 0 0 0 0 0 0 0 0 0 0 127 0" result="hardAlpha"/>
<feOffset dy="4"/>
<feGaussianBlur stdDeviation="2"/>
<feComposite in2="hardAlpha" operator="out"/>
<feColorMatrix type="matrix" values="0 0 0 0 0 0 0 0 0 0 0 0 0 0 0 0 0 0 0.25 0"/>
<feBlend mode="normal" in2="BackgroundImageFix" result="effect1_dropShadow_8_136"/>
<feBlend mode="normal" in="SourceGraphic" in2="effect1_dropShadow_8_136" result="shape"/>
</filter>
</defs>
</svg>
