<svg width="361" height="451" viewBox="0 0 361 451" fill="none" xmlns="http://www.w3.org/2000/svg">
<g filter="url(#filter0_d_8_136)">
<path d="M183.891 318.578C182.324 321.083 178.676 321.083 177.109 318.578L4.82834 43.1211C3.16208 40.4569 5.07736 37 8.21967 37L352.78 37C355.923 37 357.838 40.4569 356.172 43.1211L183.891 318.578Z" fill="white"/>
<path d="M350.975 42L180.5 314.571L10.0246 42L350.975 42Z" stroke="black" stroke-width="10"/>
</g>
<line y1="-5" x2="190.121" y2="-5" transform="matrix(-0.883006 0.469361 -0.5205 -0.853862 347.086 37)" stroke="black" stroke-width="10"/>
<path d="M180.073 309.512L180.931 126.218" stroke="black" stroke-width="10"/>
<line y1="-5" x2="193.564" y2="-5" transform="matrix(-0.889539 -0.45686 0.507503 -0.86165 180.93 126.235)" stroke="black" stroke-width="10"/>
<line y1="-4" x2="18.926" y2="-4" transform="matrix(0.913888 0.405966 -0.453924 0.891041 328.146 52.2745)" stroke="black" stroke-width="8"/>
<line y1="-4" x2="29.4947" y2="-4" transform="matrix(0.880225 0.474557 -0.525882 0.850558 310.436 60.4836)" stroke="black" stroke-width="8"/>
<line y1="-4" x2="33.713" y2="-4" transform="matrix(0.880225 0.474557 -0.525882 0.850558 297.785 72.8582)" stroke="black" stroke-width="8"/>
<line y1="-4" x2="48.1474" y2="-4" transform="matrix(0.880225 0.474557 -0.525882 0.850558 276.333 79.9951)" stroke="black" stroke-width="8"/>
<line y1="-4" x2="59.2672" y2="-4" transform="matrix(0.880225 0.474557 -0.525882 0.850558 258.493 87.5165)" stroke="black" stroke-width="8"/>
<line y1="-4" x2="63.0329" y2="-4" transform="matrix(0.880225 0.474557 -0.525882 0.850558 246.041 100.401)" stroke="black" stroke-width="8"/>
<line y1="-4" x2="78.4119" y2="-4" transform="matrix(0.880225 0.474557 -0.525882 0.850558 224.604 105.706)" stroke="black" stroke-width="8"/>
<line y1="-4" x2="88.232" y2="-4" transform="matrix(0.880225 0.474557 -0.525882 0.850558 206.905 115.545)" stroke="black" stroke-width="8"/>
<line y1="-4" x2="95.1202" y2="-4" transform="matrix(0.880225 0.474557 -0.525882 0.850558 192.218 126.08)" stroke="black" stroke-width="8"/>
<line y1="-4" x2="101.211" y2="-4" transform="matrix(0.880225 0.474557 -0.525882 0.850558 178.391 136.739)" stroke="black" stroke-width="8"/>
<line y1="-4" x2="89.1455" y2="-4" transform="matrix(0.880225 0.474557 -0.525882 0.850558 180.145 156.661)" stroke="black" stroke-width="8"/>
<line y1="-4" x2="80.114" y2="-4" transform="matrix(0.873063 0.487608 -0.539348 0.842083 180.07 173.667)" stroke="black" stroke-width="8"/>
<line y1="-4" x2="71.404" y2="-4" transform="matrix(0.880225 0.474557 -0.525882 0.850558 178.417 192.847)" stroke="black" stroke-width="8"/>
<line y1="-4" x2="59.2791" y2="-4" transform="matrix(0.880225 0.474557 -0.525882 0.850558 180.277 212.718)" stroke="black" stroke-width="8"/>
<line y1="-4" x2="40.9396" y2="-4" transform="matrix(0.880225 0.474557 -0.525882 0.850558 179.673 248.242)" stroke="black" stroke-width="8"/>
<line y1="-4" x2="31.3265" y2="-4" transform="matrix(0.880225 0.474557 -0.525882 0.850558 178.705 267.918)" stroke="black" stroke-width="8"/>
<line y1="-4" x2="22.3801" y2="-4" transform="matrix(0.88078 0.473525 -0.524814 0.851217 177.576 285.265)" stroke="black" stroke-width="8"/>
<line y1="-4" x2="53.5384" y2="-4" transform="matrix(0.880225 0.474557 -0.525882 0.850558 177.605 227.857)" stroke="black" stroke-width="8"/>
<path d="M24.16 428V359.84H52.576C55.584 359.84 58.336 360.48 60.832 361.76C63.328 362.976 65.504 364.64 67.36 366.752C69.216 368.8 70.656 371.136 71.68 373.76C72.704 376.32 73.216 378.944 73.216 381.632C73.216 385.344 72.384 388.896 70.72 392.288C69.056 395.616 66.72 398.336 63.712 400.448C60.704 402.496 57.184 403.52 53.152 403.52H32.8V428H24.16ZM32.8 395.84H52.672C55.04 395.84 57.088 395.2 58.816 393.92C60.608 392.64 61.984 390.912 62.944 388.736C63.968 386.56 64.48 384.192 64.48 381.632C64.48 378.944 63.904 376.544 62.752 374.432C61.6 372.256 60.096 370.56 58.24 369.344C56.384 368.128 54.336 367.52 52.096 367.52H32.8V395.84ZM93.5725 428V359.84H122.757C125.765 359.84 128.517 360.48 131.013 361.76C133.508 362.976 135.684 364.64 137.541 366.752C139.397 368.8 140.837 371.136 141.86 373.76C142.885 376.32 143.397 378.944 143.397 381.632C143.397 384.768 142.789 387.744 141.573 390.56C140.421 393.376 138.757 395.776 136.581 397.76C134.469 399.744 131.972 401.12 129.092 401.888L145.605 428H135.813L120.26 403.52H102.212V428H93.5725ZM102.212 395.84H122.852C125.22 395.84 127.269 395.2 128.997 393.92C130.789 392.576 132.165 390.816 133.124 388.64C134.148 386.464 134.66 384.128 134.66 381.632C134.66 379.072 134.085 376.736 132.933 374.624C131.781 372.448 130.277 370.72 128.42 369.44C126.565 368.16 124.517 367.52 122.276 367.52H102.212V395.84ZM166.266 428V359.84H174.906V428H166.266ZM240.836 374.144C240.068 373.248 239.044 372.384 237.764 371.552C236.484 370.72 235.044 369.984 233.444 369.344C231.844 368.64 230.084 368.096 228.164 367.712C226.308 367.264 224.356 367.04 222.308 367.04C217.06 367.04 213.188 368.032 210.692 370.016C208.196 372 206.948 374.72 206.948 378.176C206.948 380.608 207.588 382.528 208.868 383.936C210.148 385.344 212.1 386.496 214.724 387.392C217.412 388.288 220.804 389.216 224.9 390.176C229.636 391.2 233.732 392.448 237.188 393.92C240.644 395.392 243.3 397.376 245.156 399.872C247.012 402.304 247.94 405.568 247.94 409.664C247.94 412.928 247.3 415.776 246.02 418.208C244.804 420.576 243.076 422.56 240.836 424.16C238.596 425.696 235.972 426.848 232.964 427.616C229.956 428.32 226.692 428.672 223.172 428.672C219.716 428.672 216.324 428.32 212.996 427.616C209.732 426.848 206.628 425.76 203.684 424.352C200.74 422.944 197.988 421.184 195.428 419.072L199.556 411.776C200.58 412.864 201.892 413.952 203.492 415.04C205.156 416.064 207.012 417.024 209.06 417.92C211.172 418.816 213.444 419.552 215.876 420.128C218.308 420.64 220.804 420.896 223.364 420.896C228.228 420.896 232.004 420.032 234.692 418.304C237.38 416.512 238.724 413.92 238.724 410.528C238.724 407.968 237.956 405.92 236.42 404.384C234.948 402.848 232.74 401.568 229.796 400.544C226.852 399.52 223.268 398.496 219.044 397.472C214.436 396.32 210.564 395.072 207.428 393.728C204.292 392.32 201.924 390.496 200.324 388.256C198.788 386.016 198.02 383.104 198.02 379.52C198.02 375.168 199.076 371.488 201.188 368.48C203.3 365.472 206.212 363.2 209.924 361.664C213.636 360.128 217.828 359.36 222.5 359.36C225.572 359.36 228.42 359.68 231.044 360.32C233.732 360.96 236.228 361.856 238.532 363.008C240.836 364.16 242.948 365.536 244.868 367.136L240.836 374.144ZM327.848 428V375.968L305.384 416H300.104L277.544 375.968V428H268.904V359.84H278.024L302.696 404.096L327.464 359.84H336.488V428H327.848Z" fill="black"/>
<defs>
<filter id="filter0_d_8_136" x="0.213257" y="37" width="360.573" height="291.457" filterUnits="userSpaceOnUse" color-interpolation-filters="sRGB">
<feFlood flood-opacity="0" result="BackgroundImageFix"/>
<feColorMatrix in="SourceAlpha" type="matrix" values="0 0 0 0 0 0 0 0 0 0 0 0 0 0 0 0 0 0 127 0" result="hardAlpha"/>
<feOffset dy="4"/>
<feGaussianBlur stdDeviation="2"/>
<feComposite in2="hardAlpha" operator="out"/>
<feColorMatrix type="matrix" values="0 0 0 0 0 0 0 0 0 0 0 0 0 0 0 0 0 0 0.25 0"/>
<feBlend mode="normal" in2="BackgroundImageFix" result="effect1_dropShadow_8_136"/>
<feBlend mode="normal" in="SourceGraphic" in2="effect1_dropShadow_8_136" result="shape"/>
</filter>
</defs>
</svg>
